<svg xmlns="http://www.w3.org/2000/svg" fill="none" viewBox="0 0 12 12">
  <path fill="#F2E6DF" d="M10.5 4.5V1.82812c0-.21093-.0938-.39843-.2344-.53906L9.21094.234375C9.07031.09375 8.88281 0 8.67188 0H2.25c-.42188 0-.75.351562-.75.75V4.5C.65625 4.5 0 5.17969 0 6v2.625C0 8.83594.164062 9 .375 9H1.5v2.25c0 .4219.32812.75.75.75h7.5c.3984 0 .75-.3281.75-.75V9h1.125c.1875 0 .375-.16406.375-.375V6c0-.82031-.6797-1.5-1.5-1.5Zm-1.5 6H3V8.25h6v2.25Zm0-5.25H3V1.5h4.5v1.125c0 .21094.16406.375.375.375H9v2.25Zm1.125 1.6875c-.32812 0-.5625-.23438-.5625-.5625 0-.30469.23438-.5625.5625-.5625.3047 0 .5625.25781.5625.5625 0 .32812-.2578.5625-.5625.5625Z"/>
</svg>
