<svg xmlns="http://www.w3.org/2000/svg" fill="none" viewBox="0 0 14 12">
  <path fill="#F2E6DF" d="M5.03906 1.6875 2.95312 3.75H.5625C.234375 3.75 0 4.00781 0 4.3125v3.375c0 .32812.234375.5625.5625.5625h2.39062l2.08594 2.0859c.35156.3516.96094.1172.96094-.3984V2.08594c0-.51563-.60938-.75-.96094-.39844ZM10.5.46875C10.2422.304688 9.89062.375 9.70312.632812c-.16406.28125-.09374.632808.16407.796878C11.4375 2.4375 12.3516 4.17188 12.3516 6.02344c0 1.82812-.9141 3.5625-2.48441 4.57036-.25781.164-.32813.5156-.16407.7968.16407.2344.51568.3282.79688.1641 1.875-1.2422 3-3.3047 3-5.5547 0-2.22656-1.125-4.28906-3-5.53125ZM11.25 6c0-1.47656-.7734-2.83594-2.01562-3.65625-.25782-.16406-.60938-.09375-.77344.1875-.16406.25781-.09375.60937.16406.77344.9375.58593 1.5 1.61719 1.5 2.69531 0 1.10156-.5625 2.13281-1.5 2.71875-.25781.16406-.32812.51563-.16406.77344.14062.25781.49218.35156.77344.1875C10.4766 8.85938 11.25 7.5 11.25 6ZM7.92188 4.21875c-.28126-.16406-.60938-.07031-.77344.21094-.14063.28125-.04688.60937.23437.77343.28125.16407.49219.46876.49219.79688 0 .35156-.21094.65625-.49219.82031-.28125.16407-.375.49219-.23437.77344.16406.28125.49218.375.77344.21094C8.57812 7.45312 9 6.75 9 6c0-.72656-.42188-1.42969-1.07812-1.78125Z"/>
</svg>
