<svg xmlns="http://www.w3.org/2000/svg" fill="none" viewBox="0 0 44 44">
  <path fill="#F2E6DF" d="M44 44H0V0h44v44ZM1.4621 42.5379h41.0758V1.4621H1.4621v41.0758Z"/>
  <path fill="#F2E6DF" d="M10.7983 15.1084H8.77271v-1.3251H14.286v1.3251h-2.0256v5.3306h-1.4773v-5.3306h.0152Zm14.4077 5.1478h-1.6448l-1.7058-2.178h-1.0661v2.178H19.312v-6.6404h3.1526c1.5992 0 2.4521 1.0661 2.4521 2.2389-.0152.8681-.2589 1.6296-1.5382 2.0865l1.8275 2.2083v.1067Zm-4.4167-5.3611v1.9343h1.6906c.6853 0 .9747-.5178.9747-.9291-.0152-.4569-.3046-1.0052-.99-1.0052h-1.6753Zm10.25 5.2849v-6.6556h1.4774v6.6404h-1.4774v.0152Zm-17.865 7.874-.0914-2.0865v-2.2389h1.4926v6.6403h-1.2793l-3.305-4.2492.0609 2.1779v2.0713H8.54431v-6.6403h1.27938l3.35061 4.3254Zm11.91 1.2641c-.6854.6702-1.5687.9747-2.5587.9747-2.5282 0-3.5486-1.6296-3.5486-3.442-.0152-1.721 1.1118-3.5182 3.5486-3.5182.9138 0 1.7515.3503 2.4369 1.0204l-.9291.9139c-.396-.396-.9747-.5483-1.5078-.5483-1.5077 0-2.1018 1.1727-2.0865 2.1322.0152.9747.533 2.0713 2.0865 2.0713.5331 0 1.2337-.2437 1.6297-.6396l.929 1.0356Zm8.285.0153h-3.4115l-.4874 1.1422h-1.5992l2.9852-6.6403h1.6144l2.9851 6.6403h-1.5992l-.4874-1.1422Zm-1.7058-4.0055-1.1422 2.6957h2.2845l-1.1423-2.6957Z"/>
</svg>
