<svg width="1920" height="1920" viewBox="0 0 1920 1920" fill="none" xmlns="http://www.w3.org/2000/svg">
<rect width="1920" height="1920" fill="#63415F"/>
<path d="M1460 973.83C1460 969.245 1460 964.661 1460 959.953C1460 958.714 1460 957.722 1460 956.607V513.781C1460.05 511.12 1459.56 508.477 1458.55 506.015C1457.54 503.553 1456.03 501.324 1454.13 499.465C1452.22 497.607 1449.95 496.16 1447.46 495.212C1444.98 494.264 1442.32 493.837 1439.66 493.956H1290.85C1288.17 493.89 1285.51 494.424 1283.07 495.517C1280.62 496.61 1278.45 498.236 1276.71 500.275C1273.18 503.897 1271.14 508.721 1271.01 513.781V883.257C1270.36 892.083 1266.58 900.386 1260.35 906.675C1257.51 909.617 1254.09 911.948 1250.32 913.525C1246.54 915.102 1242.49 915.891 1238.4 915.843H1087.73C1080.27 916.062 1073.17 919.121 1067.89 924.395C1062.61 929.67 1059.55 936.761 1059.33 944.217V1047.55C1059.55 1055.01 1062.61 1062.1 1067.89 1067.37C1073.17 1072.65 1080.27 1075.71 1087.73 1075.93H1270.51C1248.11 1138.04 1208.23 1192.38 1155.68 1232.41C1103.5 1271.65 1039.68 1292.33 974.386 1291.14C916.106 1291.49 858.818 1276.07 808.589 1246.54C758.27 1217.51 716.485 1175.76 687.434 1125.49C658.195 1075.19 642.794 1018.06 642.794 959.891C642.794 901.724 658.195 844.593 687.434 794.295C716.485 744.019 758.27 702.269 808.589 673.243C858.818 643.709 916.106 628.296 974.386 628.638L1011.59 630.001C1018.32 630.624 1025.03 628.566 1030.26 624.273C1035.48 619.981 1038.8 613.802 1039.49 607.079L1062.18 483.796C1063.09 479.989 1063.16 476.032 1062.41 472.192C1061.65 468.353 1060.08 464.72 1057.8 461.538C1055.52 458.356 1052.59 455.699 1049.19 453.747C1045.8 451.794 1042.02 450.591 1038.13 450.219C1017 447.369 995.703 445.961 974.386 446.006C906.745 445.678 839.709 458.747 777.153 484.459C714.597 510.171 657.762 548.016 609.932 595.806C562.102 643.596 524.225 700.383 498.492 762.886C472.758 825.389 459.678 892.368 460.006 959.953C459.587 1050.09 483.016 1138.73 527.919 1216.91C572.823 1295.09 637.606 1360.02 715.708 1405.13C794.126 1451.06 883.493 1474.98 974.386 1474.39C1062.54 1475.64 1149.24 1451.83 1224.38 1405.75C1298.03 1360.65 1358.04 1296.42 1397.99 1219.9C1437.19 1145.46 1458.42 1062.89 1460 978.786V973.83Z" fill="#F2E6DF"/>
</svg>
